<svg width="219" height="219" viewBox="0 0 219 219" fill="none" xmlns="http://www.w3.org/2000/svg">
<path d="M147.4 155.265C146.24 154.615 145.051 155.886 142.986 156.056C142.986 156.056 141.119 156.225 138.289 154.558C135.007 152.665 119.984 132.635 100.716 104.215C100.603 103.791 100.49 103.339 100.348 102.915C100.999 101.7 101.65 100.486 102.301 99.2706C120.946 72.5734 129.83 67.6859 134.413 69.3244C136.139 69.946 139.138 72.1778 141.713 70.9631C143.891 69.946 145.165 66.7254 144.457 64.2109C143.382 60.4253 138.204 59.5495 136.62 59.2953C131.046 58.3631 126.604 61.3858 125.303 62.4029C123.69 63.6178 122.728 64.8608 122.389 65.3129C115.174 74.7487 85.1266 117.86 82.9762 116.702C82.863 116.645 82.8065 115.769 82.6933 114.046C82.5802 112.379 82.6084 111.108 82.6084 110.854C82.6367 108.707 82.9196 94.8634 83.3441 75.8787C83.1744 74.7204 83.1744 73.1383 84.0798 71.867C84.872 70.7652 85.7774 70.624 88.0973 69.3244C88.9178 68.8725 92.7657 66.6688 92.4828 65.8496C92.2848 65.2846 90.2192 65.5671 88.267 65.7649C84.4475 66.1321 80.5997 65.8213 76.7801 66.0191C62.9731 66.7537 61.5866 65.5388 56.692 66.5559C49.081 68.1662 36.717 73.3927 34.9628 83.3088C32.6994 96.1913 53.8061 109.13 55.0509 108.085C55.3621 107.803 54.6832 106.305 53.9475 105.345C52.4762 103.395 50.1563 103.085 49.3923 102.604C47.1005 101.164 41.8947 95.0896 42.2624 87.1227C42.7152 78.1953 49.9298 72.0365 56.126 70.0026C56.126 70.0026 61.6432 68.1662 68.9145 70.3698C71.0082 71.0195 71.7439 71.867 72.0269 72.5452C72.3946 73.4774 72.1118 74.3815 72.0835 74.551C71.5741 76.5003 71.1215 97.6604 70.7536 144.896C70.6405 145.122 70.6686 146.026 70.414 146.365C70.1877 146.676 70.1028 147.241 68.2355 148.06C67.5566 148.371 66.9623 148.484 66.453 148.569C68.7448 149.586 70.895 151.281 72.9038 152.722C74.6297 152.609 75.4502 152.75 77.6855 152.722C82.863 152.637 90.7286 153.004 90.9832 151.648C91.0115 151.507 91.0115 151.055 90.8983 150.575C90.7569 150.01 90.5023 149.529 90.2758 149.247C89.6252 148.484 88.6349 148.823 87.1636 148.512C85.6357 148.202 84.221 147.298 83.5702 145.8C83.2591 145.094 82.9762 144.586 83.0612 143.23C83.0612 143.032 83.0045 141.337 82.863 137.947C82.8347 137.24 82.467 128.03 82.7499 123.199C82.7782 122.691 82.7499 121.448 83.4855 120.29C83.8816 119.668 84.3343 119.329 84.4758 119.188C85.4377 118.397 87.2202 116.673 90.6154 112.973C90.7003 113.227 90.8417 113.566 91.0963 113.961C91.2378 114.187 91.3794 114.3 91.4077 114.385C91.5491 114.752 91.7754 115.289 92.2282 116.137C100.942 127.889 107.082 137.41 111.184 144.134C113.108 147.269 115.315 151.027 119.701 154.643C120.974 155.717 130.452 163.344 140.977 161.423C141.713 161.282 148.192 160.067 148.39 157.383C148.531 156.677 148.135 155.66 147.4 155.265Z" fill="url(#paint0_linear_46_2746)"/>
<path d="M22.7685 148.343C22.7685 148.343 23.445 148 24.5791 147.496C27.5212 146.19 33.5419 143.805 38.8106 143.54C43.3093 143.314 48.487 143.992 56.4374 147.298C68.858 152.496 73.1869 158.033 81.7031 163.599C84.4192 165.379 99.2448 174.786 117.437 175.464C140.779 176.34 157.896 162.412 162.197 158.796C181.663 142.467 185.878 121.081 187.039 114.583C187.462 112.182 190.264 95.8242 184.663 77.5739C183.02 72.2345 181.182 66.443 176.372 60.482C171.138 53.9841 164.432 49.7747 164.743 49.3227C164.941 49.0402 167.856 50.6788 169.695 51.8936C181.069 59.2671 186.614 71.274 188.397 75.2855C196.007 92.321 194.848 108.707 194.056 115.176C193.205 122.295 189.811 147.241 167.827 165.915C160.782 171.904 142.731 184.986 117.324 183.77C103.291 183.121 86.428 177.385 76.1293 168.147C74.9694 167.13 70.301 162.808 63.3125 157.892C56.9466 153.4 53.5796 151.083 48.2324 149.417C48.2324 149.417 40.2254 146.93 31.5676 147.778C28.0877 148.117 25.8524 148.626 25.4847 148.823C25.1169 149.021 24.0133 149.388 23.4476 149.388C22.8817 149.388 22.1741 148.484 22.7685 148.343Z" fill="url(#paint1_linear_46_2746)"/>
<path d="M149.352 16.7208C149.465 17.8509 149.635 19.4612 149.918 21.3822C150.512 25.7047 150.795 27.8518 151.361 29.1795C153.002 33.0217 155.916 35.3101 156.85 35.9881C157.727 36.6097 161.405 39.2652 166.186 39.124C166.979 39.0957 168.054 38.9827 168.082 39.124C168.11 39.3218 161.914 38.9544 156.991 42.4294C154.303 44.3223 152.86 46.7236 152.379 47.5712C151.106 49.7747 150.71 51.6675 150.059 54.7469C149.126 59.3519 149.069 62.8833 148.899 62.8833C148.729 62.8833 149.041 59.3236 148.305 54.5209C148.079 53.0235 147.937 52.063 147.513 50.82C147.513 50.82 146.438 47.2038 143.976 44.6612C138.94 39.463 130.48 40.1127 130.565 39.3782C130.622 38.898 133.281 39.3782 137.158 38.22C138.855 37.7114 142.165 36.6943 144.627 33.7846C145.9 32.2871 146.466 30.8465 147.06 29.2925C147.909 27.1173 148.192 25.2244 148.729 21.4952C149.041 19.4895 149.239 17.8509 149.352 16.7208Z" fill="url(#paint2_linear_46_2746)"/>
<defs>
<linearGradient id="paint0_linear_46_2746" x1="27.901" y1="151.931" x2="189.763" y2="151.26" gradientUnits="userSpaceOnUse">
<stop stop-color="#959FD8"/>
<stop offset="1" stop-color="#D5A2F2"/>
</linearGradient>
<linearGradient id="paint1_linear_46_2746" x1="27.901" y1="151.931" x2="189.763" y2="151.26" gradientUnits="userSpaceOnUse">
<stop stop-color="#959FD8"/>
<stop offset="1" stop-color="#D5A2F2"/>
</linearGradient>
<linearGradient id="paint2_linear_46_2746" x1="27.901" y1="151.931" x2="189.763" y2="151.26" gradientUnits="userSpaceOnUse">
<stop stop-color="#959FD8"/>
<stop offset="1" stop-color="#D5A2F2"/>
</linearGradient>
</defs>
</svg>
