<svg width="95" height="92" viewBox="0 0 95 92" fill="none" xmlns="http://www.w3.org/2000/svg">
<path d="M68.767 76.0765C68.1314 75.7204 67.4802 76.417 66.3485 76.5099C66.3485 76.5099 65.3253 76.6028 63.775 75.6895C61.9766 74.6523 53.7445 63.6769 43.1869 48.104C43.1249 47.8717 43.0629 47.6241 42.9853 47.3919C43.3419 46.7262 43.6985 46.0606 44.0551 45.3949C54.2716 30.7663 59.1396 28.0882 61.6511 28.986C62.5968 29.3266 64.2401 30.5495 65.6509 29.8839C66.8446 29.3266 67.5422 27.5619 67.1547 26.1841C66.5656 24.1098 63.7285 23.6299 62.8603 23.4906C59.8062 22.9798 57.3722 24.6361 56.6591 25.1934C55.7754 25.8591 55.2483 26.5402 55.0623 26.7879C51.109 31.9582 34.6447 55.5808 33.4664 54.9462C33.4044 54.9152 33.3734 54.4353 33.3114 53.491C33.2494 52.5777 33.2649 51.8811 33.2649 51.7418C33.2804 50.5653 33.4354 42.98 33.668 32.5774C33.575 31.9427 33.575 31.0758 34.0711 30.3792C34.5051 29.7755 35.0013 29.6981 36.2725 28.986C36.7221 28.7384 38.8305 27.5309 38.6755 27.082C38.567 26.7724 37.4352 26.9272 36.3655 27.0355C34.2726 27.2368 32.1642 27.0665 30.0713 27.1749C22.5058 27.5774 21.7461 26.9117 19.0641 27.469C14.8937 28.3514 8.1189 31.2152 7.15771 36.6487C5.91746 43.7076 17.4828 50.7975 18.1649 50.2247C18.3354 50.0699 17.9634 49.2495 17.5603 48.7232C16.7541 47.655 15.4829 47.4847 15.0643 47.2216C13.8085 46.4321 10.956 43.1039 11.1575 38.7385C11.4056 33.8468 15.3588 30.4721 18.754 29.3576C18.754 29.3576 21.7771 28.3514 25.7614 29.5588C26.9086 29.9148 27.3117 30.3792 27.4668 30.7508C27.6683 31.2616 27.5133 31.757 27.4978 31.8499C27.2187 32.918 26.9707 44.5126 26.7691 70.3953C26.7071 70.5191 26.7225 71.0145 26.583 71.2003C26.459 71.3706 26.4125 71.6801 25.3893 72.1291C25.0173 72.2993 24.6917 72.3613 24.4126 72.4077C25.6684 72.965 26.8466 73.8938 27.9473 74.6833C28.893 74.6213 29.3426 74.6987 30.5674 74.6833C33.4044 74.6368 37.7143 74.8381 37.8538 74.095C37.8693 74.0176 37.8693 73.7699 37.8073 73.5068C37.7298 73.1972 37.5903 72.934 37.4662 72.7792C37.1097 72.3613 36.5671 72.547 35.7609 72.3767C34.9237 72.2064 34.1485 71.7111 33.7919 70.8907C33.6214 70.5037 33.4664 70.225 33.513 69.482C33.513 69.3736 33.4819 68.4448 33.4044 66.5872C33.3889 66.2002 33.1874 61.1537 33.3424 58.5066C33.3579 58.2279 33.3424 57.5468 33.7455 56.9121C33.9625 56.5716 34.2106 56.3858 34.2881 56.3084C34.8152 55.875 35.7919 54.9307 37.6523 52.9028C37.6988 53.0421 37.7763 53.2279 37.9158 53.4446C37.9933 53.5684 38.0709 53.6303 38.0864 53.6768C38.1639 53.878 38.2879 54.1721 38.536 54.6366C43.3109 61.0763 46.6751 66.2931 48.923 69.9773C49.9772 71.6956 51.1865 73.7545 53.5895 75.7359C54.2871 76.3242 59.4806 80.5038 65.2478 79.4511C65.6509 79.3737 69.2011 78.7081 69.3096 77.2375C69.3871 76.8505 69.1701 76.2932 68.767 76.0765Z" fill="url(#paint0_linear_290_3421)"/>
<path d="M0.47588 72.2839C0.47588 72.2839 0.846639 72.0957 1.46799 71.8199C3.0801 71.1041 6.37908 69.7975 9.26613 69.6522C11.7311 69.5284 14.5682 69.8999 18.9246 71.7111C25.7304 74.5594 28.1024 77.5935 32.7688 80.6431C34.2571 81.6183 42.3807 86.7732 52.3492 87.1447C65.1393 87.6246 74.5186 79.9929 76.8751 78.0115C87.5412 69.064 89.8512 57.3456 90.4868 53.7851C90.7194 52.4693 92.2542 43.5064 89.1845 33.5062C88.2854 30.5805 87.2777 27.4071 84.6422 24.1408C81.7741 20.5803 78.0998 18.2738 78.2704 18.0261C78.3789 17.8713 79.9757 18.7692 80.9834 19.4348C87.2157 23.4751 90.2543 30.0542 91.231 32.2523C95.4013 41.5868 94.7657 50.5653 94.3316 54.1102C93.8665 58.0112 92.0061 71.6801 79.9602 81.9125C76.0999 85.1942 66.209 92.3615 52.2872 91.6959C44.5977 91.3399 35.3578 88.1974 29.7147 83.1354C29.0791 82.5781 26.5211 80.2097 22.6918 77.5161C19.2036 75.0548 17.3587 73.7854 14.4287 72.8721C14.4287 72.8721 10.0413 71.5098 5.29734 71.9743C3.39046 72.16 2.16567 72.4387 1.96418 72.547C1.76268 72.6553 1.15797 72.8566 0.847954 72.8566C0.537934 72.8566 0.150225 72.3613 0.47588 72.2839Z" fill="url(#paint1_linear_290_3421)"/>
<path d="M69.8367 0.162109C69.8987 0.781313 69.9917 1.66368 70.1468 2.71632C70.4723 5.08478 70.6273 6.26126 70.9374 6.98883C71.8366 9.09412 73.4334 10.348 73.945 10.7195C74.4256 11.0601 76.441 12.5152 79.061 12.4378C79.4951 12.4223 80.0842 12.3604 80.0997 12.4378C80.1152 12.5462 76.7201 12.3449 74.0225 14.249C72.5497 15.2862 71.7591 16.602 71.4955 17.0664C70.7979 18.2738 70.5808 19.311 70.2243 20.9983C69.7127 23.5216 69.6817 25.4566 69.5886 25.4566C69.4956 25.4566 69.6662 23.5061 69.2631 20.8745C69.1391 20.054 69.0615 19.5277 68.829 18.8466C68.829 18.8466 68.2399 16.8651 66.8911 15.4719C64.1316 12.6236 59.4961 12.9796 59.5426 12.5771C59.5736 12.314 61.0309 12.5771 63.1549 11.9425C64.0851 11.6638 65.8989 11.1065 67.2477 9.51208C67.9453 8.69164 68.2554 7.90215 68.5809 7.05075C69.046 5.85878 69.2011 4.82162 69.4956 2.77824C69.6662 1.67916 69.7747 0.781313 69.8367 0.162109Z" fill="url(#paint2_linear_290_3421)"/>
<defs>
<linearGradient id="paint0_linear_290_3421" x1="3.28819" y1="74.2498" x2="91.9801" y2="73.8822" gradientUnits="userSpaceOnUse">
<stop stop-color="#959FD8"/>
<stop offset="1" stop-color="#D5A2F2"/>
</linearGradient>
<linearGradient id="paint1_linear_290_3421" x1="3.28819" y1="74.2498" x2="91.9801" y2="73.8822" gradientUnits="userSpaceOnUse">
<stop stop-color="#959FD8"/>
<stop offset="1" stop-color="#D5A2F2"/>
</linearGradient>
<linearGradient id="paint2_linear_290_3421" x1="3.28819" y1="74.2498" x2="91.9801" y2="73.8822" gradientUnits="userSpaceOnUse">
<stop stop-color="#959FD8"/>
<stop offset="1" stop-color="#D5A2F2"/>
</linearGradient>
</defs>
</svg>
