<svg width="307" height="233" viewBox="0 0 307 233" fill="none" xmlns="http://www.w3.org/2000/svg">
<path d="M39.2145 114.188C38.1652 115.087 19.9369 103.904 21.8857 92.7517C23.3847 84.1773 34.0579 79.6502 40.6236 78.2412C44.8508 77.3417 46.0201 78.3911 57.9523 77.7615C61.2501 77.5816 64.578 77.8514 67.8758 77.5216C69.5547 77.3418 71.3536 77.1019 71.5035 77.5816C71.7433 78.2711 68.4155 80.1599 67.7259 80.5796C65.6872 81.7489 64.9377 81.8088 64.2482 82.7982C63.3788 84.0874 63.5586 85.6164 63.6186 86.2759C64.3981 93.891 63.1389 114.727 62.989 116.526C62.959 116.736 62.8691 117.935 62.989 119.524C63.1089 120.843 63.1389 121.503 63.3188 121.563C65.3575 122.642 90.9308 85.5564 97.3466 77.1319C97.6464 76.7421 98.4859 75.6628 99.865 74.6135C101.004 73.7441 104.812 71.1358 109.639 71.9453C111.018 72.1851 115.485 72.9046 116.414 76.2025C117.014 78.3611 115.935 81.1493 114.046 82.0187C111.977 83.0081 110.298 81.0893 107.75 80.6096C99.4453 78.9907 89.132 93.5912 80.0179 106.483C78.8787 108.072 77.6794 109.811 77.6794 109.811C76.9899 110.86 75.8806 112.389 75.7607 112.599C73.0624 116.736 104.452 161.527 107.75 166.654C116.834 180.774 128.047 191.088 140.878 197.803C158.147 206.827 174.336 207.217 180.872 207.307C187.318 207.397 201.739 207.427 218.228 199.992C221.766 198.403 230.13 194.326 239.034 186.531C254.264 173.159 261.07 157.599 263.918 149.505C265.597 144.708 270.604 129.208 268.325 109.001C267.546 102.046 264.907 85.8262 255.314 71.1958C247.669 59.5334 237.925 52.2181 234.267 49.7897C231.719 48.0508 227.822 45.6824 227.822 45.6824C227.822 45.6824 233.218 48.9203 238.705 52.7578C238.705 52.7578 253.005 62.5914 262.509 79.8601C269.375 92.362 277.259 118.415 269.135 147.286C267.246 154.002 256.903 187.82 221.856 205.268C193.104 219.599 161.835 215.762 140.548 205.119C120.042 194.865 106.281 176.997 103.043 172.83C99.2654 167.943 95.3379 161.797 87.4531 149.505C75.9106 131.516 70.1244 122.522 69.8246 120.963C69.7946 120.783 69.6447 120.064 69.165 119.854C68.1157 119.434 66.137 121.773 65.1476 122.972C64.458 123.811 64.0983 124.201 63.8285 124.741C63.2888 125.82 63.2289 126.81 63.1989 127.259C62.959 131.456 63.2588 139.401 63.2888 140.031C63.4087 142.969 63.4687 144.408 63.4387 144.588C63.3488 145.757 63.2289 146.177 63.4987 146.807C64.0383 148.096 65.6573 148.905 66.9764 149.175C68.2356 149.415 69.075 149.145 69.6447 149.805C69.8246 150.044 70.0644 150.464 70.1843 150.944C70.2743 151.364 70.2743 151.753 70.2743 151.873C70.0644 153.012 63.2588 152.713 58.7917 152.803C51.0268 152.923 47.0394 154.212 46.0201 152.323C45.6603 151.633 45.6903 150.554 46.17 149.954C46.8595 149.115 48.0587 149.625 49.6477 148.995C49.6477 148.995 50.9069 148.515 52.316 146.777C56.9629 141.17 52.9156 89.0042 53.9349 85.1667C53.9649 85.0168 54.2047 84.2373 53.9049 83.4278C53.6651 82.8282 53.0355 82.0787 51.2367 81.539C44.9707 79.6502 40.2039 81.2092 40.2039 81.2092C34.8373 82.9781 28.6013 88.3146 28.2415 96.0196C27.9117 102.915 32.4089 108.162 34.3876 109.421C35.0472 109.841 37.0559 110.11 38.3151 111.789C38.8847 112.659 39.4843 113.978 39.2145 114.188Z" fill="url(#paint0_linear_46_2761)"/>
<path d="M113.326 113.918C113.026 115.477 113.536 116.137 112.996 117.066C112.517 117.905 111.437 118.535 110.568 118.325C109.129 117.965 108.709 115.267 108.679 114.218C108.499 108.731 117.583 104.444 118.963 103.785C124.749 102.256 129.786 102.436 132.724 103.695C133.383 103.995 135.632 104.924 137.041 106.843C137.76 107.802 138.18 108.911 138.18 108.911C138.18 108.911 138.54 109.871 138.72 110.92C139.349 115.027 138.57 137.483 138.45 140.541C138.42 141.56 138.39 142.37 138.39 142.759C139.019 143.629 139.589 143.869 139.979 143.928C140.818 144.048 141.268 143.419 143.037 142.759C143.996 142.4 144.866 142.07 145.255 142.429C145.675 142.849 145.255 143.899 145.136 144.228C143.726 147.856 138.57 149.595 135.482 150.015C134.612 150.134 133.743 150.164 132.844 149.805C132.124 149.505 131.554 148.995 131.524 148.935C131.165 148.605 130.955 148.336 130.835 148.156C130.835 148.156 130.385 147.556 130.115 146.867C129.486 145.278 130.835 142.16 130.325 141.83C129.756 141.44 127.567 145.068 123.61 147.496C122.111 148.426 118.483 150.644 114.046 149.805C113.776 149.745 108.02 148.575 106.071 143.928C103.613 138.052 109.069 131.067 113.326 128.159C114.316 127.499 115.665 126.84 118.363 125.52C122.44 123.572 124.479 122.492 126.817 121.863C127.957 121.563 128.167 121.563 128.556 121.293C131.075 119.524 131.374 113.229 128.017 109.781C125.498 107.202 121.961 107.322 121.391 107.352C118.123 107.532 115.575 109.511 114.346 111.46C113.986 112.119 113.536 112.869 113.326 113.918ZM128.436 125.371C127.807 125.55 127.327 125.76 127.237 125.82C126.068 126.39 125.708 126.39 124.359 126.96C119.742 128.878 117.434 129.838 116.174 131.277C114.046 133.735 112.847 138.562 115.335 141.77C117.314 144.348 120.821 144.828 123.22 144.408C128.197 143.509 130.385 138.382 130.355 137.273C130.355 137.273 130.355 137.273 130.325 136.104C130.295 135.444 130.295 134.635 130.295 134.635C130.205 131.067 130.145 129.268 130.265 127.919C130.385 126.51 130.535 125.61 130.055 125.281C129.696 125.071 129.126 125.221 128.436 125.371Z" fill="url(#paint1_linear_46_2761)"/>
<path d="M156.078 120.124C156.138 118.505 156.198 116.586 157.218 114.338C157.697 113.288 158.986 110.59 161.955 108.881C162.524 108.551 167.561 105.673 171.189 108.252C174.606 110.68 174.996 116.646 172.987 118.325C172.957 118.355 172.837 118.445 172.837 118.445C172.837 118.445 171.758 119.225 170.589 119.794C169.42 120.364 167.891 120.604 166.182 121.053C164.023 121.623 162.134 122.462 160.306 123.272C158.327 124.171 157.607 124.681 156.918 124.321C155.958 123.812 156.018 121.983 156.078 120.124ZM155.869 129.568C156.348 128.608 157.278 128.189 157.757 127.979C162.974 125.73 168.61 124.351 168.61 124.351C171.308 123.692 172.238 123.452 173.497 123.032C176.405 122.103 177.874 121.623 179.073 120.604C179.493 120.274 182.161 117.905 182.131 114.518C182.131 113.138 181.652 112.119 180.962 110.62C180.482 109.541 179.553 107.622 177.604 105.883C177.604 105.883 175.626 104.144 172.777 103.245C168.19 101.806 161.055 103.215 155.869 107.142C146.305 114.368 144.716 129.088 149.033 138.862C149.902 140.81 151.701 144.738 155.958 147.466C161.265 150.854 168.041 150.854 172.867 148.635C175.806 147.286 177.964 145.128 178.324 144.738C179.523 143.509 178.744 143.988 181.442 140.631C181.981 139.941 182.731 139.042 182.431 138.532C182.281 138.262 181.892 138.172 181.592 138.172C181.082 138.172 180.722 138.532 180.542 138.742C179.883 139.401 179.103 139.881 178.414 140.511C177.514 141.35 176.735 141.83 175.746 142.429C175.206 142.759 173.287 143.868 170.739 144.228C167.411 144.708 164.683 143.659 163.394 143.059C163.394 143.059 159.046 140.93 155.928 133.195C155.809 132.896 155.509 132.176 155.509 131.187C155.539 130.887 155.539 130.227 155.869 129.568ZM190.436 84.8369C189.477 82.5884 185.729 83.0081 185.579 81.659C185.489 80.9095 186.568 80.2199 187.918 79.3205C189.027 78.571 189.836 78.2712 191.066 77.7315C195.203 75.9327 195.952 75.0933 196.882 75.513C197.961 75.9927 198.201 77.6116 198.291 78.3611C199.49 87.6551 197.931 124.531 198.321 140.151C198.321 140.181 198.321 140.721 198.351 141.38C198.381 142.819 198.411 143.539 198.441 143.599C199.04 144.978 201.739 144.528 203.178 145.967C203.717 146.507 204.077 147.166 204.077 147.166C204.137 147.316 204.257 147.526 204.317 147.706C204.407 147.886 204.467 148.066 204.437 148.156C204.347 148.575 202.548 148.425 202.548 148.425C199.7 147.946 187.738 148.635 187.738 148.635C187.108 148.665 185.849 148.725 185.219 147.946C184.89 147.556 184.71 146.926 184.92 146.417C185.189 145.697 186.149 145.487 186.958 145.308C187.738 145.128 188.397 145.158 188.847 145.218C188.847 145.218 189.357 144.888 189.806 144.408C191.785 142.279 190.616 92.8117 190.616 90.803C190.616 90.5032 190.616 89.9636 190.616 88.9143C190.556 86.3959 190.556 85.1067 190.436 84.8369ZM214.9 112.389C214.81 111.43 214.78 110.8 214.36 110.38C213.731 109.721 213.041 110.2 211.992 109.601C211.182 109.121 210.373 108.072 210.583 107.232C210.673 106.903 210.883 106.693 213.101 105.493C214.3 104.834 214.93 104.504 215.799 104.114C217.179 103.485 217.868 103.155 218.768 102.975C219.367 102.855 219.847 102.825 220.806 102.795C222.215 102.705 222.515 102.825 222.695 102.975C223.265 103.455 223.055 104.564 223.025 104.864C223.025 104.864 222.845 105.913 222.845 138.112C222.845 138.172 222.845 139.401 222.845 140.631C222.845 141.14 222.845 141.62 222.845 141.74C222.845 142.459 222.845 142.819 222.845 142.849C222.935 143.838 223.834 144.828 224.764 145.248C225.813 145.727 226.263 145.188 227.102 145.697C228.061 146.267 228.601 147.676 228.211 148.216C227.852 148.725 226.712 148.485 226.173 148.366C225.903 148.306 223.205 148.396 217.808 148.515C211.782 148.665 209.354 149.835 208.664 148.665C208.274 147.976 208.664 146.747 209.294 146.147C210.073 145.397 210.823 145.937 212.292 145.038C213.341 144.408 213.761 143.629 213.881 143.449C214.21 142.849 214.3 142.309 214.33 142.01C215.11 135.594 214.66 122.642 214.66 122.642C214.6 120.664 214.57 117.785 214.81 114.278C214.9 113.828 214.96 113.168 214.9 112.389ZM218.857 92.0022C215.41 92.0022 212.142 88.9442 212.472 85.3766C212.771 82.1986 215.799 79.8602 218.857 79.9501C222.485 80.04 225.573 83.5178 225.003 87.0255C224.524 89.9336 221.706 92.0022 218.857 92.0022ZM202.098 69.307C203.028 69.367 201.289 54.2269 209.504 47.5112C215.799 42.3546 225.483 44.2134 225.513 43.0741C225.543 41.8749 214.87 43.3439 208.484 37.4078C200.749 30.1825 203.208 15.4321 202.338 15.4321C201.499 15.4321 204.077 29.2231 196.912 36.6883C190.316 43.5838 178.174 42.2347 178.234 43.314C178.294 44.3933 190.586 41.4252 197.152 47.5712C204.377 54.3468 201.169 69.2771 202.098 69.307Z" fill="url(#paint2_linear_46_2761)"/>
<path d="M247.489 105.463C248.148 105.583 252.795 106.453 253.935 109.571C254.564 111.28 253.665 112.419 254.714 113.978C255.374 114.967 256.693 116.017 257.712 115.717C259.271 115.237 259.541 111.639 259.121 109.271C258.971 108.461 258.641 106.663 257.232 105.014C255.434 102.915 253.005 102.405 251.086 102.016C249.527 101.716 244.371 100.696 239.274 103.755C235.796 105.823 231.359 110.35 231.719 115.717C232.139 122.372 239.964 127.469 244.161 128.788C244.611 128.938 245.45 129.148 246.529 129.748C247.519 130.257 251.296 132.266 252.346 136.523C252.495 137.153 253.575 141.68 250.607 144.708C247.789 147.586 243.142 147.196 240.353 145.817C237.205 144.228 235.257 139.881 234.687 138.742C233.818 136.943 233.308 135.264 232.469 135.264C231.509 135.264 230.82 137.513 230.73 137.782C230.01 140.181 230.55 142.879 231.509 144.708C234.207 149.745 242.602 150.764 248.538 149.115C250.577 148.545 256.183 146.986 258.611 141.38C260.77 136.433 258.671 131.277 258.312 130.467C258.132 130.017 257.802 129.238 257.172 128.309C254.444 124.171 250.877 124.381 245.51 120.903C242.632 119.015 239.574 117.036 238.734 113.498C238.614 113.048 237.805 109.301 240.144 106.872C242.512 104.564 246.11 105.224 247.489 105.463Z" fill="url(#paint3_linear_46_2761)"/>
<path d="M191.065 163.026C190.855 163.506 190.676 164.135 190.945 164.435C191.155 164.675 191.485 164.585 192.205 164.585C192.894 164.585 193.134 164.585 193.883 165.065C194.183 165.245 194.663 165.694 194.933 166.714C194.933 169.112 194.903 171.481 194.903 173.879C194.873 176.247 194.843 178.616 194.813 180.954C194.783 181.164 194.723 181.644 194.333 182.064C193.973 182.453 193.524 182.603 193.284 182.633C192.354 182.843 192.804 182.393 192.384 182.753C192.115 182.993 192.085 183.383 192.055 183.653C192.025 184.282 192.324 184.732 192.444 184.882C192.984 184.882 193.524 184.912 194.063 184.912C195.352 184.942 196.402 184.942 197.091 184.942C197.961 184.942 198.56 184.912 199.01 184.912C199.46 184.882 199.939 184.882 200.389 184.882C201.439 184.882 201.768 184.972 202.008 184.702C202.278 184.432 202.278 184.042 202.278 183.803C202.278 183.593 202.278 183.113 201.978 182.843C201.498 182.363 201.678 182.933 200.539 182.513C200.029 182.333 199.76 182.064 199.7 181.974C199.31 181.584 199.16 181.104 199.13 180.894C199.07 178.496 198.98 176.128 198.92 173.729C198.89 172.68 198.8 169.682 198.86 166.594C198.86 166.084 198.89 165.275 199.4 164.915C199.4 164.915 199.61 164.615 201.019 164.585C201.528 164.585 201.828 164.585 202.008 164.375C202.308 164.075 202.278 163.446 201.948 163.116C201.618 162.786 201.079 162.876 200.779 162.906C199.88 163.026 198.59 163.116 196.642 163.056C195.562 163.026 194.033 163.266 192.085 162.936" fill="url(#paint4_linear_46_2761)"/>
<path d="M161.115 184.492C160.845 184.282 160.815 183.922 160.755 183.203C160.725 182.783 160.665 182.363 160.935 182.184C160.995 182.124 161.055 182.124 161.385 182.094C162.344 182.034 162.524 182.064 162.794 181.974C162.944 181.914 163.393 181.764 163.244 181.824C163.244 181.824 165.222 177.147 167.471 172.23C167.951 171.181 168.37 170.071 168.88 169.022C169.839 166.983 170.679 165.484 170.259 165.125C170.109 165.005 169.989 165.125 169.36 165.065C168.82 165.005 168.19 164.945 167.861 164.495C167.621 164.165 167.561 163.596 167.831 163.266C168.07 162.936 168.52 162.966 170.109 162.996C171.368 163.026 171.338 162.996 172.747 163.026C174.306 163.056 174.966 163.116 175.296 163.386C175.775 163.776 175.895 164.405 175.955 164.705C176.945 170.311 181.232 180.864 181.921 181.524C182.071 181.644 182.251 181.734 182.251 181.734C182.671 181.914 183.001 181.974 183.241 181.974C183.45 181.974 183.54 181.944 183.96 181.944C184.68 181.944 184.74 181.974 184.8 182.004C185.099 182.184 185.099 182.663 185.099 182.963C185.099 183.503 185.099 183.803 184.889 184.012C184.56 184.402 183.9 184.282 182.911 184.192C182.041 184.102 180.872 184.042 180.243 184.042C177.784 184.042 176.375 184.822 175.656 184.042C175.416 183.803 175.356 183.503 175.326 183.293V183.263C175.326 183.143 175.266 182.543 175.656 182.244C175.685 182.214 175.715 182.214 175.715 182.184C175.865 182.124 176.075 182.124 176.855 182.064C177.544 182.004 177.904 181.974 177.964 181.914C178.384 181.494 177.754 180.175 176.525 177.567C176.525 177.567 176.405 177.357 176.075 177.237C175.626 177.087 172.987 177.147 172.088 177.117C171.218 177.087 170.229 176.967 168.61 177.087C168.19 177.117 167.951 177.177 167.681 177.327C167.021 177.716 167.021 178.406 166.422 179.965C165.942 181.194 165.582 181.614 165.792 181.884C165.912 182.034 166.092 181.974 167.171 182.004C168.07 182.034 168.22 182.094 168.34 182.214C168.61 182.453 168.61 182.813 168.64 183.383C168.64 183.862 168.67 184.282 168.4 184.492C168.25 184.612 168.1 184.552 167.561 184.552C167.141 184.522 166.781 184.552 166.571 184.552C165.762 184.492 164.503 184.492 164.053 184.492C163.334 184.492 162.944 184.492 162.704 184.522C161.625 184.582 161.385 184.702 161.115 184.492ZM170.199 172.08C169.51 173.669 169 174.928 169.539 175.558C169.809 175.888 170.169 175.798 172.148 175.768C174.666 175.738 174.546 175.888 174.846 175.498C175.086 175.198 175.146 174.748 174.306 172.44C173.317 169.712 173.407 168.333 172.777 168.273C171.848 168.213 171.068 170.041 170.199 172.08Z" fill="url(#paint5_linear_46_2761)"/>
<defs>
<linearGradient id="paint0_linear_46_2761" x1="29.231" y1="176.577" x2="265.477" y2="175.378" gradientUnits="userSpaceOnUse">
<stop stop-color="#959FD8"/>
<stop offset="1" stop-color="#D5A2F2"/>
</linearGradient>
<linearGradient id="paint1_linear_46_2761" x1="29.231" y1="176.577" x2="265.477" y2="175.378" gradientUnits="userSpaceOnUse">
<stop stop-color="#959FD8"/>
<stop offset="1" stop-color="#D5A2F2"/>
</linearGradient>
<linearGradient id="paint2_linear_46_2761" x1="29.231" y1="176.577" x2="265.477" y2="175.378" gradientUnits="userSpaceOnUse">
<stop stop-color="#959FD8"/>
<stop offset="1" stop-color="#D5A2F2"/>
</linearGradient>
<linearGradient id="paint3_linear_46_2761" x1="29.2309" y1="176.577" x2="265.477" y2="175.378" gradientUnits="userSpaceOnUse">
<stop stop-color="#959FD8"/>
<stop offset="1" stop-color="#D5A2F2"/>
</linearGradient>
<linearGradient id="paint4_linear_46_2761" x1="190.809" y1="173.907" x2="202.278" y2="173.907" gradientUnits="userSpaceOnUse">
<stop stop-color="#959FD8"/>
<stop offset="1" stop-color="#D5A2F2"/>
</linearGradient>
<linearGradient id="paint5_linear_46_2761" x1="160.728" y1="173.795" x2="185.099" y2="173.795" gradientUnits="userSpaceOnUse">
<stop stop-color="#959FD8"/>
<stop offset="1" stop-color="#D5A2F2"/>
</linearGradient>
</defs>
</svg>
