<svg width="1858" height="560" viewBox="0 0 1858 560" fill="none" xmlns="http://www.w3.org/2000/svg">
<path d="M1858 15.4997L1849.87 17.1012C1846.95 17.6742 1844.67 19.9523 1844.1 22.866L1842.5 31L1840.9 22.866C1840.33 19.9523 1838.05 17.6742 1835.13 17.1012L1827 15.4997L1835.13 13.9002C1838.05 13.3263 1840.33 11.0486 1840.9 8.13403L1842.5 0L1844.1 8.13403C1844.67 11.0486 1846.95 13.3263 1849.87 13.9002L1858 15.4997Z" fill="#34344F"/>
<path d="M395.684 137.84L382.648 140.41C377.977 141.328 374.328 144.98 373.406 149.641L370.84 162.68L368.277 149.641C367.355 144.98 363.703 141.328 359.035 140.41L346 137.84L359.035 135.27C363.707 134.359 367.355 130.699 368.277 126.039L370.84 113L373.406 126.039C374.324 130.699 377.977 134.359 382.648 135.27L395.684 137.84Z" fill="#646095" fill-opacity="0.41"/>
<path d="M86.3644 147.012L84.7162 134.892L75.9348 131.156L85.1088 128.527L88.2338 116.701L89.8821 128.821L98.6635 132.558L89.4895 135.187L86.3644 147.012Z" fill="#2F2D48"/>
<path d="M1048.43 303.487L1043.51 278.805L1025 272.244L1043.51 265.682L1048.43 241L1053.35 265.682L1071.86 272.244L1053.35 278.805L1048.43 303.487Z" fill="#646095" fill-opacity="0.38"/>
<path d="M1079.71 270.001L1077.61 259.731L1069.71 257.001L1077.61 254.271L1079.71 244.001L1081.81 254.271L1089.71 257.001L1081.81 259.731L1079.71 270.001Z" fill="#D1A3F1"/>
<path d="M36.6028 558.619L28.8114 523.735L0.282199 514.773L28.6928 505.141L36.0382 470.08L43.8297 504.963L72.3588 513.925L43.9482 523.557L36.6028 558.619Z" fill="#646095" fill-opacity="0.38"/>
</svg>
