<svg width="300" height="455" viewBox="0 0 300 455" fill="none" xmlns="http://www.w3.org/2000/svg">
<rect x="0.5" y="0.5" width="299" height="454" rx="9.5" fill="black"/>
<rect x="0.5" y="0.5" width="299" height="454" rx="9.5" fill="url(#paint0_linear_309_1977)" fill-opacity="0.5"/>
<rect x="0.5" y="0.5" width="299" height="454" rx="9.5" stroke="url(#paint1_linear_309_1977)"/>
<rect x="30.5" y="35.5" width="239" height="384" rx="9.5" fill="url(#paint2_linear_309_1977)" fill-opacity="0.25" stroke="url(#paint3_linear_309_1977)"/>
<path d="M102.515 224.404L134.697 212.69L146.404 180.515C146.672 179.778 147.161 179.141 147.804 178.691C148.446 178.241 149.212 178 149.996 178C150.781 178 151.546 178.241 152.189 178.691C152.831 179.141 153.32 179.778 153.588 180.515L165.303 212.697L197.485 224.404C198.222 224.672 198.859 225.161 199.309 225.804C199.759 226.446 200 227.212 200 227.996C200 228.781 199.759 229.546 199.309 230.189C198.859 230.831 198.222 231.32 197.485 231.588L165.295 243.303L153.588 275.485C153.32 276.222 152.831 276.859 152.189 277.309C151.546 277.759 150.781 278 149.996 278C149.212 278 148.446 277.759 147.804 277.309C147.161 276.859 146.672 276.222 146.404 275.485L134.69 243.295L102.515 231.588C101.778 231.32 101.141 230.831 100.691 230.189C100.241 229.546 100 228.781 100 227.996C100 227.212 100.241 226.446 100.691 225.804C101.141 225.161 101.778 224.672 102.515 224.404Z" fill="url(#paint4_linear_309_1977)" fill-opacity="0.25"/>
<path d="M102.515 224.404L134.697 212.69L146.404 180.515C146.672 179.778 147.161 179.141 147.804 178.691C148.446 178.241 149.212 178 149.996 178C150.781 178 151.546 178.241 152.189 178.691C152.831 179.141 153.32 179.778 153.588 180.515L165.303 212.697L197.485 224.404C198.222 224.672 198.859 225.161 199.309 225.804C199.759 226.446 200 227.212 200 227.996C200 228.781 199.759 229.546 199.309 230.189C198.859 230.831 198.222 231.32 197.485 231.588L165.295 243.303L153.588 275.485C153.32 276.222 152.831 276.859 152.189 277.309C151.546 277.759 150.781 278 149.996 278C149.212 278 148.446 277.759 147.804 277.309C147.161 276.859 146.672 276.222 146.404 275.485L134.69 243.295L102.515 231.588C101.778 231.32 101.141 230.831 100.691 230.189C100.241 229.546 100 228.781 100 227.996C100 227.212 100.241 226.446 100.691 225.804C101.141 225.161 101.778 224.672 102.515 224.404Z" stroke="white" stroke-linecap="round" stroke-linejoin="round"/>
<path d="M102.515 224.404L134.697 212.69L146.404 180.515C146.672 179.778 147.161 179.141 147.804 178.691C148.446 178.241 149.212 178 149.996 178C150.781 178 151.546 178.241 152.189 178.691C152.831 179.141 153.32 179.778 153.588 180.515L165.303 212.697L197.485 224.404C198.222 224.672 198.859 225.161 199.309 225.804C199.759 226.446 200 227.212 200 227.996C200 228.781 199.759 229.546 199.309 230.189C198.859 230.831 198.222 231.32 197.485 231.588L165.295 243.303L153.588 275.485C153.32 276.222 152.831 276.859 152.189 277.309C151.546 277.759 150.781 278 149.996 278C149.212 278 148.446 277.759 147.804 277.309C147.161 276.859 146.672 276.222 146.404 275.485L134.69 243.295L102.515 231.588C101.778 231.32 101.141 230.831 100.691 230.189C100.241 229.546 100 228.781 100 227.996C100 227.212 100.241 226.446 100.691 225.804C101.141 225.161 101.778 224.672 102.515 224.404Z" stroke="url(#paint5_linear_309_1977)" stroke-linecap="round" stroke-linejoin="round"/>
<defs>
<linearGradient id="paint0_linear_309_1977" x1="0" y1="227.5" x2="300" y2="227.5" gradientUnits="userSpaceOnUse">
<stop stop-color="#9F95D8"/>
<stop offset="1" stop-color="#DDA2F2"/>
</linearGradient>
<linearGradient id="paint1_linear_309_1977" x1="0" y1="227.5" x2="300" y2="227.5" gradientUnits="userSpaceOnUse">
<stop stop-color="#969FD8"/>
<stop offset="1" stop-color="#D4A2F2"/>
</linearGradient>
<linearGradient id="paint2_linear_309_1977" x1="30" y1="227.5" x2="270" y2="227.5" gradientUnits="userSpaceOnUse">
<stop stop-color="#9F95D8"/>
<stop offset="1" stop-color="#DDA2F2"/>
</linearGradient>
<linearGradient id="paint3_linear_309_1977" x1="30" y1="227.5" x2="270" y2="227.5" gradientUnits="userSpaceOnUse">
<stop stop-color="#969FD8"/>
<stop offset="1" stop-color="#D4A2F2"/>
</linearGradient>
<linearGradient id="paint4_linear_309_1977" x1="100" y1="228" x2="200" y2="228" gradientUnits="userSpaceOnUse">
<stop stop-color="#9F95D8"/>
<stop offset="1" stop-color="#DDA2F2"/>
</linearGradient>
<linearGradient id="paint5_linear_309_1977" x1="100" y1="228" x2="200" y2="228" gradientUnits="userSpaceOnUse">
<stop stop-color="#969FD8"/>
<stop offset="1" stop-color="#D4A2F2"/>
</linearGradient>
</defs>
</svg>
