<svg width="297" height="455" viewBox="0 0 297 455" fill="none" xmlns="http://www.w3.org/2000/svg">
<g clip-path="url(#clip0_14_800)">
<rect width="297" height="455" rx="10" fill="url(#paint0_linear_14_800)"/>
<g filter="url(#filter0_n_14_800)">
<path d="M70.3955 277.206C59.2622 249.962 29.7205 184.312 -47 200.546V431.653L412 448V370.776C331.642 430.526 291.628 328.773 217.884 334.973C206.708 335.913 159.682 353.866 132.896 347.666C119.963 344.672 82.08 302.947 70.3955 277.206Z" fill="url(#paint1_linear_14_800)"/>
</g>
<g filter="url(#filter1_dn_14_800)">
<path d="M232.112 347.929C241.11 327.66 264.988 278.816 327 290.894V462.838L-44 475V417.546C20.9517 461.999 53.2939 386.295 112.9 390.908C121.933 391.607 159.943 404.964 181.594 400.351C192.047 398.124 222.667 367.081 232.112 347.929Z" fill="url(#paint2_linear_14_800)"/>
</g>
<g filter="url(#filter2_dn_14_800)">
<path d="M259 369L240.897 372.311C234.409 373.494 229.342 378.199 228.061 384.202L224.497 401L220.939 384.202C219.658 378.199 214.586 373.494 208.103 372.311L190 369L208.103 365.689C214.591 364.516 219.658 359.801 220.939 353.798L224.497 337L228.061 353.798C229.336 359.801 234.409 364.516 240.897 365.689L259 369Z" fill="#D4A2F2"/>
</g>
<g filter="url(#filter3_dn_14_800)">
<path d="M51 31.5L41.5549 33.2073C38.1697 33.8171 35.5261 36.2432 34.8582 39.3387L32.9986 48L31.1418 39.3387C30.4739 36.2432 27.8274 33.8171 24.4451 33.2073L15 31.5L24.4451 29.7927C27.8303 29.1881 30.4739 26.7568 31.1418 23.6613L32.9986 15L34.8582 23.6613C35.5233 26.7568 38.1697 29.1881 41.5549 29.7927L51 31.5Z" fill="#D4A2F2"/>
</g>
<g filter="url(#filter4_d_14_800)">
<path d="M51 31.5L41.5549 33.2073C38.1697 33.8171 35.5261 36.2432 34.8582 39.3387L32.9986 48L31.1418 39.3387C30.4739 36.2432 27.8274 33.8171 24.4451 33.2073L15 31.5L24.4451 29.7927C27.8303 29.1881 30.4739 26.7568 31.1418 23.6613L32.9986 15L34.8582 23.6613C35.5233 26.7568 38.1697 29.1881 41.5549 29.7927L51 31.5Z" fill="#D4A2F2"/>
</g>
<path d="M70.3955 277.206C59.2622 249.962 29.7205 184.312 -47 200.546V431.653L412 448V370.776C331.642 430.526 291.628 328.773 217.884 334.973C206.708 335.913 159.682 353.866 132.896 347.666C119.963 344.672 82.08 302.947 70.3955 277.206Z" fill="url(#paint3_linear_14_800)"/>
<g filter="url(#filter5_d_14_800)">
<path d="M232.112 347.929C241.11 327.66 264.988 278.816 327 290.894V462.838L-44 475V417.546C20.9517 461.999 53.2939 386.295 112.9 390.908C121.933 391.607 159.943 404.964 181.594 400.351C192.047 398.124 222.667 367.081 232.112 347.929Z" fill="url(#paint4_linear_14_800)"/>
</g>
<g filter="url(#filter6_d_14_800)">
<path d="M259 369L240.897 372.311C234.409 373.494 229.342 378.199 228.061 384.202L224.497 401L220.939 384.202C219.658 378.199 214.586 373.494 208.103 372.311L190 369L208.103 365.689C214.591 364.516 219.658 359.801 220.939 353.798L224.497 337L228.061 353.798C229.336 359.801 234.409 364.516 240.897 365.689L259 369Z" fill="#D4A2F2"/>
</g>
</g>
<defs>
<filter id="filter0_n_14_800" x="-47" y="198" width="459" height="250" filterUnits="userSpaceOnUse" color-interpolation-filters="sRGB">
<feFlood flood-opacity="0" result="BackgroundImageFix"/>
<feBlend mode="normal" in="SourceGraphic" in2="BackgroundImageFix" result="shape"/>
<feTurbulence type="fractalNoise" baseFrequency="2 2" stitchTiles="stitch" numOctaves="3" result="noise" seed="3343" />
<feColorMatrix in="noise" type="luminanceToAlpha" result="alphaNoise" />
<feComponentTransfer in="alphaNoise" result="coloredNoise1">
<feFuncA type="discrete" tableValues="1 1 1 1 1 1 1 1 1 1 1 1 1 1 1 1 1 1 1 1 1 1 1 1 1 1 1 1 1 1 1 1 1 1 1 1 1 1 1 1 1 1 1 1 1 1 1 1 1 1 1 0 0 0 0 0 0 0 0 0 0 0 0 0 0 0 0 0 0 0 0 0 0 0 0 0 0 0 0 0 0 0 0 0 0 0 0 0 0 0 0 0 0 0 0 0 0 0 0 0 "/>
</feComponentTransfer>
<feComposite operator="in" in2="shape" in="coloredNoise1" result="noise1Clipped" />
<feFlood flood-color="rgba(0, 0, 0, 0.25)" result="color1Flood" />
<feComposite operator="in" in2="noise1Clipped" in="color1Flood" result="color1" />
<feMerge result="effect1_noise_14_800">
<feMergeNode in="shape" />
<feMergeNode in="color1" />
</feMerge>
</filter>
<filter id="filter1_dn_14_800" x="-57" y="269" width="384" height="206" filterUnits="userSpaceOnUse" color-interpolation-filters="sRGB">
<feFlood flood-opacity="0" result="BackgroundImageFix"/>
<feColorMatrix in="SourceAlpha" type="matrix" values="0 0 0 0 0 0 0 0 0 0 0 0 0 0 0 0 0 0 127 0" result="hardAlpha"/>
<feOffset dx="-9" dy="-16"/>
<feGaussianBlur stdDeviation="2"/>
<feComposite in2="hardAlpha" operator="out"/>
<feColorMatrix type="matrix" values="0 0 0 0 0 0 0 0 0 0 0 0 0 0 0 0 0 0 0.25 0"/>
<feBlend mode="normal" in2="BackgroundImageFix" result="effect1_dropShadow_14_800"/>
<feBlend mode="normal" in="SourceGraphic" in2="BackgroundImageFix" result="shape"/>
<feTurbulence type="fractalNoise" baseFrequency="2 2" stitchTiles="stitch" numOctaves="3" result="noise" seed="3343" />
<feColorMatrix in="noise" type="luminanceToAlpha" result="alphaNoise" />
<feComponentTransfer in="alphaNoise" result="coloredNoise1">
<feFuncA type="discrete" tableValues="1 1 1 1 1 1 1 1 1 1 1 1 1 1 1 1 1 1 1 1 1 1 1 1 1 1 1 1 1 1 1 1 1 1 1 1 1 1 1 1 1 1 1 1 1 1 1 1 1 1 1 0 0 0 0 0 0 0 0 0 0 0 0 0 0 0 0 0 0 0 0 0 0 0 0 0 0 0 0 0 0 0 0 0 0 0 0 0 0 0 0 0 0 0 0 0 0 0 0 0 "/>
</feComponentTransfer>
<feComposite operator="in" in2="shape" in="coloredNoise1" result="noise1Clipped" />
<feFlood flood-color="rgba(0, 0, 0, 0.25)" result="color1Flood" />
<feComposite operator="in" in2="noise1Clipped" in="color1Flood" result="color1" />
<feMerge result="effect2_noise_14_800">
<feMergeNode in="shape" />
<feMergeNode in="color1" />
</feMerge>
<feBlend mode="normal" in="effect2_noise_14_800" in2="effect1_dropShadow_14_800" result="effect2_noise_14_800"/>
</filter>
<filter id="filter2_dn_14_800" x="186" y="337" width="77" height="72" filterUnits="userSpaceOnUse" color-interpolation-filters="sRGB">
<feFlood flood-opacity="0" result="BackgroundImageFix"/>
<feColorMatrix in="SourceAlpha" type="matrix" values="0 0 0 0 0 0 0 0 0 0 0 0 0 0 0 0 0 0 127 0" result="hardAlpha"/>
<feOffset dy="4"/>
<feGaussianBlur stdDeviation="2"/>
<feComposite in2="hardAlpha" operator="out"/>
<feColorMatrix type="matrix" values="0 0 0 0 0 0 0 0 0 0 0 0 0 0 0 0 0 0 0.25 0"/>
<feBlend mode="normal" in2="BackgroundImageFix" result="effect1_dropShadow_14_800"/>
<feBlend mode="normal" in="SourceGraphic" in2="BackgroundImageFix" result="shape"/>
<feTurbulence type="fractalNoise" baseFrequency="2 2" stitchTiles="stitch" numOctaves="3" result="noise" seed="7421" />
<feColorMatrix in="noise" type="luminanceToAlpha" result="alphaNoise" />
<feComponentTransfer in="alphaNoise" result="coloredNoise1">
<feFuncA type="discrete" tableValues="1 1 1 1 1 1 1 1 1 1 1 1 1 1 1 1 1 1 1 1 1 1 1 1 1 1 1 1 1 1 1 1 1 1 1 1 1 1 1 1 1 1 1 1 1 1 1 1 1 1 1 0 0 0 0 0 0 0 0 0 0 0 0 0 0 0 0 0 0 0 0 0 0 0 0 0 0 0 0 0 0 0 0 0 0 0 0 0 0 0 0 0 0 0 0 0 0 0 0 0 "/>
</feComponentTransfer>
<feComposite operator="in" in2="shape" in="coloredNoise1" result="noise1Clipped" />
<feFlood flood-color="rgba(0, 0, 0, 0.25)" result="color1Flood" />
<feComposite operator="in" in2="noise1Clipped" in="color1Flood" result="color1" />
<feMerge result="effect2_noise_14_800">
<feMergeNode in="shape" />
<feMergeNode in="color1" />
</feMerge>
<feBlend mode="normal" in="effect2_noise_14_800" in2="effect1_dropShadow_14_800" result="effect2_noise_14_800"/>
</filter>
<filter id="filter3_dn_14_800" x="11" y="15" width="44" height="41" filterUnits="userSpaceOnUse" color-interpolation-filters="sRGB">
<feFlood flood-opacity="0" result="BackgroundImageFix"/>
<feColorMatrix in="SourceAlpha" type="matrix" values="0 0 0 0 0 0 0 0 0 0 0 0 0 0 0 0 0 0 127 0" result="hardAlpha"/>
<feOffset dy="4"/>
<feGaussianBlur stdDeviation="2"/>
<feComposite in2="hardAlpha" operator="out"/>
<feColorMatrix type="matrix" values="0 0 0 0 0 0 0 0 0 0 0 0 0 0 0 0 0 0 0.25 0"/>
<feBlend mode="normal" in2="BackgroundImageFix" result="effect1_dropShadow_14_800"/>
<feBlend mode="normal" in="SourceGraphic" in2="BackgroundImageFix" result="shape"/>
<feTurbulence type="fractalNoise" baseFrequency="2 2" stitchTiles="stitch" numOctaves="3" result="noise" seed="7421" />
<feColorMatrix in="noise" type="luminanceToAlpha" result="alphaNoise" />
<feComponentTransfer in="alphaNoise" result="coloredNoise1">
<feFuncA type="discrete" tableValues="1 1 1 1 1 1 1 1 1 1 1 1 1 1 1 1 1 1 1 1 1 1 1 1 1 1 1 1 1 1 1 1 1 1 1 1 1 1 1 1 1 1 1 1 1 1 1 1 1 1 1 0 0 0 0 0 0 0 0 0 0 0 0 0 0 0 0 0 0 0 0 0 0 0 0 0 0 0 0 0 0 0 0 0 0 0 0 0 0 0 0 0 0 0 0 0 0 0 0 0 "/>
</feComponentTransfer>
<feComposite operator="in" in2="shape" in="coloredNoise1" result="noise1Clipped" />
<feFlood flood-color="rgba(0, 0, 0, 0.25)" result="color1Flood" />
<feComposite operator="in" in2="noise1Clipped" in="color1Flood" result="color1" />
<feMerge result="effect2_noise_14_800">
<feMergeNode in="shape" />
<feMergeNode in="color1" />
</feMerge>
<feBlend mode="normal" in="effect2_noise_14_800" in2="effect1_dropShadow_14_800" result="effect2_noise_14_800"/>
</filter>
<filter id="filter4_d_14_800" x="11" y="15" width="44" height="41" filterUnits="userSpaceOnUse" color-interpolation-filters="sRGB">
<feFlood flood-opacity="0" result="BackgroundImageFix"/>
<feColorMatrix in="SourceAlpha" type="matrix" values="0 0 0 0 0 0 0 0 0 0 0 0 0 0 0 0 0 0 127 0" result="hardAlpha"/>
<feOffset dy="4"/>
<feGaussianBlur stdDeviation="2"/>
<feComposite in2="hardAlpha" operator="out"/>
<feColorMatrix type="matrix" values="0 0 0 0 0 0 0 0 0 0 0 0 0 0 0 0 0 0 0.25 0"/>
<feBlend mode="normal" in2="BackgroundImageFix" result="effect1_dropShadow_14_800"/>
<feBlend mode="normal" in="SourceGraphic" in2="effect1_dropShadow_14_800" result="shape"/>
</filter>
<filter id="filter5_d_14_800" x="-57" y="269" width="384" height="206" filterUnits="userSpaceOnUse" color-interpolation-filters="sRGB">
<feFlood flood-opacity="0" result="BackgroundImageFix"/>
<feColorMatrix in="SourceAlpha" type="matrix" values="0 0 0 0 0 0 0 0 0 0 0 0 0 0 0 0 0 0 127 0" result="hardAlpha"/>
<feOffset dx="-9" dy="-16"/>
<feGaussianBlur stdDeviation="2"/>
<feComposite in2="hardAlpha" operator="out"/>
<feColorMatrix type="matrix" values="0 0 0 0 0 0 0 0 0 0 0 0 0 0 0 0 0 0 0.25 0"/>
<feBlend mode="normal" in2="BackgroundImageFix" result="effect1_dropShadow_14_800"/>
<feBlend mode="normal" in="SourceGraphic" in2="effect1_dropShadow_14_800" result="shape"/>
</filter>
<filter id="filter6_d_14_800" x="186" y="337" width="77" height="72" filterUnits="userSpaceOnUse" color-interpolation-filters="sRGB">
<feFlood flood-opacity="0" result="BackgroundImageFix"/>
<feColorMatrix in="SourceAlpha" type="matrix" values="0 0 0 0 0 0 0 0 0 0 0 0 0 0 0 0 0 0 127 0" result="hardAlpha"/>
<feOffset dy="4"/>
<feGaussianBlur stdDeviation="2"/>
<feComposite in2="hardAlpha" operator="out"/>
<feColorMatrix type="matrix" values="0 0 0 0 0 0 0 0 0 0 0 0 0 0 0 0 0 0 0.25 0"/>
<feBlend mode="normal" in2="BackgroundImageFix" result="effect1_dropShadow_14_800"/>
<feBlend mode="normal" in="SourceGraphic" in2="effect1_dropShadow_14_800" result="shape"/>
</filter>
<linearGradient id="paint0_linear_14_800" x1="148.5" y1="0" x2="148.5" y2="455" gradientUnits="userSpaceOnUse">
<stop stop-color="#171D2E"/>
<stop offset="0.490385" stop-color="#303D60"/>
<stop offset="1" stop-color="#826393"/>
</linearGradient>
<linearGradient id="paint1_linear_14_800" x1="-47" y1="323" x2="412" y2="323" gradientUnits="userSpaceOnUse">
<stop stop-color="#DF555F"/>
<stop offset="0.5" stop-color="#BA6581"/>
<stop offset="1" stop-color="#201E2F"/>
</linearGradient>
<linearGradient id="paint2_linear_14_800" x1="327" y1="382" x2="-44" y2="382" gradientUnits="userSpaceOnUse">
<stop stop-color="#646095"/>
<stop offset="1" stop-color="#201E2F"/>
</linearGradient>
<linearGradient id="paint3_linear_14_800" x1="-47" y1="323" x2="412" y2="323" gradientUnits="userSpaceOnUse">
<stop stop-color="#DF555F"/>
<stop offset="0.5" stop-color="#BA6581"/>
<stop offset="1" stop-color="#201E2F"/>
</linearGradient>
<linearGradient id="paint4_linear_14_800" x1="327" y1="382" x2="-44" y2="382" gradientUnits="userSpaceOnUse">
<stop stop-color="#646095"/>
<stop offset="1" stop-color="#201E2F"/>
</linearGradient>
<clipPath id="clip0_14_800">
<rect width="297" height="455" rx="10" fill="white"/>
</clipPath>
</defs>
</svg>
