<svg width="297" height="455" viewBox="0 0 297 455" fill="none" xmlns="http://www.w3.org/2000/svg">
<g clip-path="url(#clip0_14_752)">
<rect width="297" height="455" rx="10" fill="url(#paint0_linear_14_752)"/>
<g filter="url(#filter0_ddn_14_752)">
<path d="M158.273 252.686C199.727 263.053 227.561 302.243 231.025 348.578C232.717 348.859 234.408 349.209 236.096 349.631C260.365 355.7 278.314 375.146 285.986 399.993C292.625 397.206 299.872 396.44 306.995 398.221C326.907 403.201 338.31 426.191 332.464 449.571C326.617 472.95 305.735 487.866 285.823 482.887C282.382 482.026 279.196 480.627 276.308 478.782C258.277 509.656 225.403 526.875 193.752 518.961C173.527 513.903 157.692 499.555 148.535 480.533C133.195 485.219 116.952 485.966 100.94 481.962C82.9401 477.46 67.5093 467.524 55.5252 453.929C37.9155 468.207 15.8084 474.463 -5.73226 469.076C-22.2838 464.937 -35.8948 454.576 -45.3119 440.523C-50.5773 441.905 -56.0971 442.036 -61.5452 440.673C-81.4575 435.694 -92.8605 412.705 -87.0143 389.325C-82.4343 371.01 -68.6274 357.89 -53.2879 355.458C-38.2833 315.088 -0.0165654 290.587 36.6112 299.747C40.7235 300.775 44.6544 302.188 48.3846 303.946C73.1599 264.125 116.504 242.242 158.273 252.686Z" fill="url(#paint1_linear_14_752)"/>
</g>
<g filter="url(#filter1_dn_14_752)">
<path d="M68 289.5L56.7184 291.725C52.675 292.519 49.5173 295.681 48.7195 299.714L46.4983 311L44.2805 299.714C43.4827 295.681 40.3216 292.519 36.2816 291.725L25 289.5L36.2816 287.275C40.325 286.487 43.4827 283.319 44.2805 279.286L46.4983 268L48.7195 279.286C49.514 283.319 52.675 286.487 56.7184 287.275L68 289.5Z" fill="#9E9FDC"/>
</g>
<g filter="url(#filter2_dn_14_752)">
<path d="M309 71L292.733 74.2077C286.903 75.3534 282.351 79.9115 281.2 85.7273L277.998 102L274.8 85.7273C273.649 79.9115 269.092 75.3534 263.267 74.2077L247 71L263.267 67.7923C269.097 66.6564 273.649 62.0885 274.8 56.2727L277.998 40L281.2 56.2727C282.346 62.0885 286.903 66.6564 292.733 67.7923L309 71Z" fill="#9E9FDC"/>
</g>
<g filter="url(#filter3_dn_14_752)">
<path d="M267 92L259.129 93.4487C256.308 93.966 254.105 96.0245 253.548 98.651L251.999 106L250.452 98.651C249.895 96.0245 247.69 93.966 244.871 93.4487L237 92L244.871 90.5513C247.692 90.0384 249.895 87.9755 250.452 85.349L251.999 78L253.548 85.349C254.103 87.9755 256.308 90.0384 259.129 90.5513L267 92Z" fill="#D4A2F2"/>
</g>
<g filter="url(#filter4_d_14_752)">
<path d="M309 71L292.733 74.2077C286.903 75.3534 282.351 79.9115 281.2 85.7273L277.998 102L274.8 85.7273C273.649 79.9115 269.092 75.3534 263.267 74.2077L247 71L263.267 67.7923C269.097 66.6564 273.649 62.0885 274.8 56.2727L277.998 40L281.2 56.2727C282.346 62.0885 286.903 66.6564 292.733 67.7923L309 71Z" fill="#9E9FDC"/>
</g>
<g filter="url(#filter5_d_14_752)">
<path d="M267 92L259.129 93.4487C256.308 93.966 254.105 96.0245 253.548 98.651L251.999 106L250.452 98.651C249.895 96.0245 247.69 93.966 244.871 93.4487L237 92L244.871 90.5513C247.692 90.0384 249.895 87.9755 250.452 85.349L251.999 78L253.548 85.349C254.103 87.9755 256.308 90.0384 259.129 90.5513L267 92Z" fill="#D4A2F2"/>
</g>
<g filter="url(#filter6_dd_14_752)">
<path d="M158.273 252.686C199.727 263.053 227.561 302.243 231.025 348.578C232.717 348.859 234.408 349.209 236.096 349.631C260.365 355.7 278.314 375.146 285.986 399.993C292.625 397.206 299.872 396.44 306.995 398.221C326.907 403.201 338.31 426.191 332.464 449.571C326.617 472.95 305.735 487.866 285.823 482.887C282.382 482.026 279.196 480.627 276.308 478.782C258.277 509.656 225.403 526.875 193.752 518.961C173.527 513.903 157.692 499.555 148.535 480.533C133.195 485.219 116.952 485.966 100.94 481.962C82.9401 477.46 67.5093 467.524 55.5252 453.929C37.9155 468.207 15.8084 474.463 -5.73226 469.076C-22.2838 464.937 -35.8948 454.576 -45.3119 440.523C-50.5773 441.905 -56.0971 442.036 -61.5452 440.673C-81.4575 435.694 -92.8605 412.705 -87.0143 389.325C-82.4343 371.01 -68.6274 357.89 -53.2879 355.458C-38.2833 315.088 -0.0165654 290.587 36.6112 299.747C40.7235 300.775 44.6544 302.188 48.3846 303.946C73.1599 264.125 116.504 242.242 158.273 252.686Z" fill="url(#paint2_linear_14_752)"/>
</g>
<g filter="url(#filter7_d_14_752)">
<path d="M68 289.5L56.7184 291.725C52.675 292.519 49.5173 295.681 48.7195 299.714L46.4983 311L44.2805 299.714C43.4827 295.681 40.3216 292.519 36.2816 291.725L25 289.5L36.2816 287.275C40.325 286.487 43.4827 283.319 44.2805 279.286L46.4983 268L48.7195 279.286C49.514 283.319 52.675 286.487 56.7184 287.275L68 289.5Z" fill="#9E9FDC"/>
</g>
</g>
<defs>
<filter id="filter0_ddn_14_752" x="-96.7459" y="225.091" width="461.742" height="322.986" filterUnits="userSpaceOnUse" color-interpolation-filters="sRGB">
<feFlood flood-opacity="0" result="BackgroundImageFix"/>
<feColorMatrix in="SourceAlpha" type="matrix" values="0 0 0 0 0 0 0 0 0 0 0 0 0 0 0 0 0 0 127 0" result="hardAlpha"/>
<feOffset dx="27" dy="-21"/>
<feGaussianBlur stdDeviation="2"/>
<feComposite in2="hardAlpha" operator="out"/>
<feColorMatrix type="matrix" values="0 0 0 0 0 0 0 0 0 0 0 0 0 0 0 0 0 0 0.25 0"/>
<feBlend mode="normal" in2="BackgroundImageFix" result="effect1_dropShadow_14_752"/>
<feColorMatrix in="SourceAlpha" type="matrix" values="0 0 0 0 0 0 0 0 0 0 0 0 0 0 0 0 0 0 127 0" result="hardAlpha"/>
<feOffset dy="19"/>
<feGaussianBlur stdDeviation="4.1"/>
<feComposite in2="hardAlpha" operator="out"/>
<feColorMatrix type="matrix" values="0 0 0 0 0.0745098 0 0 0 0 0.0941176 0 0 0 0 0.14902 0 0 0 1 0"/>
<feBlend mode="normal" in2="effect1_dropShadow_14_752" result="effect2_dropShadow_14_752"/>
<feBlend mode="normal" in="SourceGraphic" in2="BackgroundImageFix" result="shape"/>
<feTurbulence type="fractalNoise" baseFrequency="2 2" stitchTiles="stitch" numOctaves="3" result="noise" seed="9334" />
<feColorMatrix in="noise" type="luminanceToAlpha" result="alphaNoise" />
<feComponentTransfer in="alphaNoise" result="coloredNoise1">
<feFuncA type="discrete" tableValues="1 1 1 1 1 1 1 1 1 1 1 1 1 1 1 1 1 1 1 1 1 1 1 1 1 1 1 1 1 1 1 1 1 1 1 1 1 1 1 1 1 1 1 1 1 1 1 1 1 1 1 0 0 0 0 0 0 0 0 0 0 0 0 0 0 0 0 0 0 0 0 0 0 0 0 0 0 0 0 0 0 0 0 0 0 0 0 0 0 0 0 0 0 0 0 0 0 0 0 0 "/>
</feComponentTransfer>
<feComposite operator="in" in2="shape" in="coloredNoise1" result="noise1Clipped" />
<feFlood flood-color="rgba(0, 0, 0, 0.25)" result="color1Flood" />
<feComposite operator="in" in2="noise1Clipped" in="color1Flood" result="color1" />
<feMerge result="effect3_noise_14_752">
<feMergeNode in="shape" />
<feMergeNode in="color1" />
</feMerge>
<feBlend mode="normal" in="effect3_noise_14_752" in2="effect2_dropShadow_14_752" result="effect3_noise_14_752"/>
</filter>
<filter id="filter1_dn_14_752" x="21" y="268" width="51" height="51" filterUnits="userSpaceOnUse" color-interpolation-filters="sRGB">
<feFlood flood-opacity="0" result="BackgroundImageFix"/>
<feColorMatrix in="SourceAlpha" type="matrix" values="0 0 0 0 0 0 0 0 0 0 0 0 0 0 0 0 0 0 127 0" result="hardAlpha"/>
<feOffset dy="4"/>
<feGaussianBlur stdDeviation="2"/>
<feComposite in2="hardAlpha" operator="out"/>
<feColorMatrix type="matrix" values="0 0 0 0 0 0 0 0 0 0 0 0 0 0 0 0 0 0 0.25 0"/>
<feBlend mode="normal" in2="BackgroundImageFix" result="effect1_dropShadow_14_752"/>
<feBlend mode="normal" in="SourceGraphic" in2="BackgroundImageFix" result="shape"/>
<feTurbulence type="fractalNoise" baseFrequency="2 2" stitchTiles="stitch" numOctaves="3" result="noise" seed="7421" />
<feColorMatrix in="noise" type="luminanceToAlpha" result="alphaNoise" />
<feComponentTransfer in="alphaNoise" result="coloredNoise1">
<feFuncA type="discrete" tableValues="1 1 1 1 1 1 1 1 1 1 1 1 1 1 1 1 1 1 1 1 1 1 1 1 1 1 1 1 1 1 1 1 1 1 1 1 1 1 1 1 1 1 1 1 1 1 1 1 1 1 1 0 0 0 0 0 0 0 0 0 0 0 0 0 0 0 0 0 0 0 0 0 0 0 0 0 0 0 0 0 0 0 0 0 0 0 0 0 0 0 0 0 0 0 0 0 0 0 0 0 "/>
</feComponentTransfer>
<feComposite operator="in" in2="shape" in="coloredNoise1" result="noise1Clipped" />
<feFlood flood-color="rgba(0, 0, 0, 0.25)" result="color1Flood" />
<feComposite operator="in" in2="noise1Clipped" in="color1Flood" result="color1" />
<feMerge result="effect2_noise_14_752">
<feMergeNode in="shape" />
<feMergeNode in="color1" />
</feMerge>
<feBlend mode="normal" in="effect2_noise_14_752" in2="effect1_dropShadow_14_752" result="effect2_noise_14_752"/>
</filter>
<filter id="filter2_dn_14_752" x="243" y="40" width="70" height="70" filterUnits="userSpaceOnUse" color-interpolation-filters="sRGB">
<feFlood flood-opacity="0" result="BackgroundImageFix"/>
<feColorMatrix in="SourceAlpha" type="matrix" values="0 0 0 0 0 0 0 0 0 0 0 0 0 0 0 0 0 0 127 0" result="hardAlpha"/>
<feOffset dy="4"/>
<feGaussianBlur stdDeviation="2"/>
<feComposite in2="hardAlpha" operator="out"/>
<feColorMatrix type="matrix" values="0 0 0 0 0 0 0 0 0 0 0 0 0 0 0 0 0 0 0.25 0"/>
<feBlend mode="normal" in2="BackgroundImageFix" result="effect1_dropShadow_14_752"/>
<feBlend mode="normal" in="SourceGraphic" in2="BackgroundImageFix" result="shape"/>
<feTurbulence type="fractalNoise" baseFrequency="2 2" stitchTiles="stitch" numOctaves="3" result="noise" seed="7421" />
<feColorMatrix in="noise" type="luminanceToAlpha" result="alphaNoise" />
<feComponentTransfer in="alphaNoise" result="coloredNoise1">
<feFuncA type="discrete" tableValues="1 1 1 1 1 1 1 1 1 1 1 1 1 1 1 1 1 1 1 1 1 1 1 1 1 1 1 1 1 1 1 1 1 1 1 1 1 1 1 1 1 1 1 1 1 1 1 1 1 1 1 0 0 0 0 0 0 0 0 0 0 0 0 0 0 0 0 0 0 0 0 0 0 0 0 0 0 0 0 0 0 0 0 0 0 0 0 0 0 0 0 0 0 0 0 0 0 0 0 0 "/>
</feComponentTransfer>
<feComposite operator="in" in2="shape" in="coloredNoise1" result="noise1Clipped" />
<feFlood flood-color="rgba(0, 0, 0, 0.25)" result="color1Flood" />
<feComposite operator="in" in2="noise1Clipped" in="color1Flood" result="color1" />
<feMerge result="effect2_noise_14_752">
<feMergeNode in="shape" />
<feMergeNode in="color1" />
</feMerge>
<feBlend mode="normal" in="effect2_noise_14_752" in2="effect1_dropShadow_14_752" result="effect2_noise_14_752"/>
</filter>
<filter id="filter3_dn_14_752" x="233" y="78" width="38" height="36" filterUnits="userSpaceOnUse" color-interpolation-filters="sRGB">
<feFlood flood-opacity="0" result="BackgroundImageFix"/>
<feColorMatrix in="SourceAlpha" type="matrix" values="0 0 0 0 0 0 0 0 0 0 0 0 0 0 0 0 0 0 127 0" result="hardAlpha"/>
<feOffset dy="4"/>
<feGaussianBlur stdDeviation="2"/>
<feComposite in2="hardAlpha" operator="out"/>
<feColorMatrix type="matrix" values="0 0 0 0 0 0 0 0 0 0 0 0 0 0 0 0 0 0 0.25 0"/>
<feBlend mode="normal" in2="BackgroundImageFix" result="effect1_dropShadow_14_752"/>
<feBlend mode="normal" in="SourceGraphic" in2="BackgroundImageFix" result="shape"/>
<feTurbulence type="fractalNoise" baseFrequency="2 2" stitchTiles="stitch" numOctaves="3" result="noise" seed="7421" />
<feColorMatrix in="noise" type="luminanceToAlpha" result="alphaNoise" />
<feComponentTransfer in="alphaNoise" result="coloredNoise1">
<feFuncA type="discrete" tableValues="1 1 1 1 1 1 1 1 1 1 1 1 1 1 1 1 1 1 1 1 1 1 1 1 1 1 1 1 1 1 1 1 1 1 1 1 1 1 1 1 1 1 1 1 1 1 1 1 1 1 1 0 0 0 0 0 0 0 0 0 0 0 0 0 0 0 0 0 0 0 0 0 0 0 0 0 0 0 0 0 0 0 0 0 0 0 0 0 0 0 0 0 0 0 0 0 0 0 0 0 "/>
</feComponentTransfer>
<feComposite operator="in" in2="shape" in="coloredNoise1" result="noise1Clipped" />
<feFlood flood-color="rgba(0, 0, 0, 0.25)" result="color1Flood" />
<feComposite operator="in" in2="noise1Clipped" in="color1Flood" result="color1" />
<feMerge result="effect2_noise_14_752">
<feMergeNode in="shape" />
<feMergeNode in="color1" />
</feMerge>
<feBlend mode="normal" in="effect2_noise_14_752" in2="effect1_dropShadow_14_752" result="effect2_noise_14_752"/>
</filter>
<filter id="filter4_d_14_752" x="243" y="40" width="70" height="70" filterUnits="userSpaceOnUse" color-interpolation-filters="sRGB">
<feFlood flood-opacity="0" result="BackgroundImageFix"/>
<feColorMatrix in="SourceAlpha" type="matrix" values="0 0 0 0 0 0 0 0 0 0 0 0 0 0 0 0 0 0 127 0" result="hardAlpha"/>
<feOffset dy="4"/>
<feGaussianBlur stdDeviation="2"/>
<feComposite in2="hardAlpha" operator="out"/>
<feColorMatrix type="matrix" values="0 0 0 0 0 0 0 0 0 0 0 0 0 0 0 0 0 0 0.25 0"/>
<feBlend mode="normal" in2="BackgroundImageFix" result="effect1_dropShadow_14_752"/>
<feBlend mode="normal" in="SourceGraphic" in2="effect1_dropShadow_14_752" result="shape"/>
</filter>
<filter id="filter5_d_14_752" x="233" y="78" width="38" height="36" filterUnits="userSpaceOnUse" color-interpolation-filters="sRGB">
<feFlood flood-opacity="0" result="BackgroundImageFix"/>
<feColorMatrix in="SourceAlpha" type="matrix" values="0 0 0 0 0 0 0 0 0 0 0 0 0 0 0 0 0 0 127 0" result="hardAlpha"/>
<feOffset dy="4"/>
<feGaussianBlur stdDeviation="2"/>
<feComposite in2="hardAlpha" operator="out"/>
<feColorMatrix type="matrix" values="0 0 0 0 0 0 0 0 0 0 0 0 0 0 0 0 0 0 0.25 0"/>
<feBlend mode="normal" in2="BackgroundImageFix" result="effect1_dropShadow_14_752"/>
<feBlend mode="normal" in="SourceGraphic" in2="effect1_dropShadow_14_752" result="shape"/>
</filter>
<filter id="filter6_dd_14_752" x="-96.7459" y="225.091" width="461.742" height="322.986" filterUnits="userSpaceOnUse" color-interpolation-filters="sRGB">
<feFlood flood-opacity="0" result="BackgroundImageFix"/>
<feColorMatrix in="SourceAlpha" type="matrix" values="0 0 0 0 0 0 0 0 0 0 0 0 0 0 0 0 0 0 127 0" result="hardAlpha"/>
<feOffset dx="27" dy="-21"/>
<feGaussianBlur stdDeviation="2"/>
<feComposite in2="hardAlpha" operator="out"/>
<feColorMatrix type="matrix" values="0 0 0 0 0 0 0 0 0 0 0 0 0 0 0 0 0 0 0.25 0"/>
<feBlend mode="normal" in2="BackgroundImageFix" result="effect1_dropShadow_14_752"/>
<feColorMatrix in="SourceAlpha" type="matrix" values="0 0 0 0 0 0 0 0 0 0 0 0 0 0 0 0 0 0 127 0" result="hardAlpha"/>
<feOffset dy="19"/>
<feGaussianBlur stdDeviation="4.1"/>
<feComposite in2="hardAlpha" operator="out"/>
<feColorMatrix type="matrix" values="0 0 0 0 0.0745098 0 0 0 0 0.0941176 0 0 0 0 0.14902 0 0 0 1 0"/>
<feBlend mode="normal" in2="effect1_dropShadow_14_752" result="effect2_dropShadow_14_752"/>
<feBlend mode="normal" in="SourceGraphic" in2="effect2_dropShadow_14_752" result="shape"/>
</filter>
<filter id="filter7_d_14_752" x="21" y="268" width="51" height="51" filterUnits="userSpaceOnUse" color-interpolation-filters="sRGB">
<feFlood flood-opacity="0" result="BackgroundImageFix"/>
<feColorMatrix in="SourceAlpha" type="matrix" values="0 0 0 0 0 0 0 0 0 0 0 0 0 0 0 0 0 0 127 0" result="hardAlpha"/>
<feOffset dy="4"/>
<feGaussianBlur stdDeviation="2"/>
<feComposite in2="hardAlpha" operator="out"/>
<feColorMatrix type="matrix" values="0 0 0 0 0 0 0 0 0 0 0 0 0 0 0 0 0 0 0.25 0"/>
<feBlend mode="normal" in2="BackgroundImageFix" result="effect1_dropShadow_14_752"/>
<feBlend mode="normal" in="SourceGraphic" in2="effect1_dropShadow_14_752" result="shape"/>
</filter>
<linearGradient id="paint0_linear_14_752" x1="148.5" y1="0" x2="148.5" y2="455" gradientUnits="userSpaceOnUse">
<stop stop-color="#171D2E"/>
<stop offset="0.490385" stop-color="#303D60"/>
<stop offset="1" stop-color="#826393"/>
</linearGradient>
<linearGradient id="paint1_linear_14_752" x1="164.064" y1="254.134" x2="103.485" y2="496.388" gradientUnits="userSpaceOnUse">
<stop stop-color="#AC87C8"/>
<stop offset="1" stop-color="#E35E67"/>
</linearGradient>
<linearGradient id="paint2_linear_14_752" x1="164.064" y1="254.134" x2="103.485" y2="496.388" gradientUnits="userSpaceOnUse">
<stop stop-color="#AC87C8"/>
<stop offset="1" stop-color="#E35E67"/>
</linearGradient>
<clipPath id="clip0_14_752">
<rect width="297" height="455" rx="10" fill="white"/>
</clipPath>
</defs>
</svg>
